<svg xmlns="http://www.w3.org/2000/svg" viewBox="0 0 27.83 22.61"><defs><style>.cls-1,.cls-2,.cls-3{fill:#fff;}.cls-2,.cls-3,.cls-5{opacity:0.98;}.cls-3,.cls-4,.cls-5{stroke:#344051;}.cls-3,.cls-5{stroke-miterlimit:10;}.cls-4,.cls-5{fill:none;}.cls-4{stroke-linecap:round;stroke-linejoin:round;}</style></defs><g id="Layer_2" data-name="Layer 2"><g id="Layer_1-2" data-name="Layer 1"><rect class="cls-1" x="0.54" y="10.63" width="26.29" height="11.01" transform="translate(27.37 32.28) rotate(-180)"/><path class="cls-2" d="M11.46,10.19H27.35V21.06a1.05,1.05,0,0,1-1.06,1.05H1.49a1,1,0,0,1-.94-.94V10.24a.05.05,0,0,1,0-.05H12.34"/><path class="cls-3" d="M27.29,10.09H.5V3.39A1,1,0,0,1,1.55,2.34H8.23V1.55a1,1,0,0,1,1-1h8.88a1,1,0,0,1,1,1v.81h7a1,1,0,0,1,.75.31,1,1,0,0,1,.31.75Z"/><line class="cls-4" x1="10.91" y1="2.64" x2="16.95" y2="2.64"/><line class="cls-4" x1="10.63" y1="13.61" x2="17.01" y2="13.61"/><path class="cls-5" d="M11.44,10.19H27.33V21.06a1.05,1.05,0,0,1-1.06,1.05H1.48a.94.94,0,0,1-.94-.94V10.24a0,0,0,0,1,0-.05H12.32"/></g></g></svg>