<svg xmlns="http://www.w3.org/2000/svg" viewBox="0 0 26.34 25.95"><defs><style>.cls-1,.cls-4{fill:#fff;}.cls-2,.cls-3,.cls-5{fill:none;}.cls-2,.cls-3,.cls-4,.cls-5{stroke:#344051;}.cls-2,.cls-5{stroke-linecap:round;}.cls-2{stroke-linejoin:round;}.cls-3,.cls-4,.cls-5{stroke-miterlimit:10;}</style></defs><g id="Layer_2" data-name="Layer 2"><g id="Layer_1-2" data-name="Layer 1"><rect class="cls-1" x="0.5" y="0.87" width="18.7" height="24.18"/><line class="cls-2" x1="6.48" y1="5.62" x2="13.76" y2="5.62"/><line class="cls-2" x1="3.34" y1="9.32" x2="16.71" y2="9.32"/><line class="cls-2" x1="3.34" y1="12.69" x2="16.71" y2="12.69"/><line class="cls-2" x1="3.34" y1="16.06" x2="16.71" y2="16.06"/><rect class="cls-3" x="0.5" y="0.5" width="19.19" height="24.95"/><path class="cls-4" d="M25.57,5.89c-.66-.66-2.3-.08-3.61,1.23L14.9,14.27c-2.3,2.3-5,6.07-4.36,6.72s4.43-2,6.73-4.35l7.07-7.15C25.65,8.18,26.22,6.54,25.57,5.89Z"/><line class="cls-2" x1="3.6" y1="20.89" x2="8.28" y2="20.89"/><path class="cls-5" d="M21.7,7.73l2.55,2.55a1.06,1.06,0,0,1,0,1.51l-2.33,2.33"/><line class="cls-3" x1="13.38" y1="16.13" x2="15.5" y2="18.25"/></g></g></svg>