<svg xmlns="http://www.w3.org/2000/svg" viewBox="0 0 29.45 26.03"><defs><style>.cls-1{fill:#fff;}.cls-1,.cls-2,.cls-3,.cls-4{stroke:#344051;stroke-miterlimit:10;}.cls-2,.cls-3,.cls-4{fill:none;}.cls-2{stroke-linecap:round;}.cls-4{opacity:0.39;}</style></defs><g id="Layer_2" data-name="Layer 2"><g id="Layer_1-2" data-name="Layer 1"><path class="cls-1" d="M5.28.5H23v25H5.28Zm6.94,19.9h3.86v5.13H12.22Z"/><line class="cls-2" x1="9.47" y1="3.2" x2="9.47" y2="6.74"/><line class="cls-2" x1="9.47" y1="8.91" x2="9.47" y2="12.45"/><line class="cls-2" x1="12.59" y1="3.2" x2="12.59" y2="6.74"/><line class="cls-2" x1="12.59" y1="8.91" x2="12.59" y2="12.45"/><line class="cls-2" x1="15.71" y1="3.2" x2="15.71" y2="6.74"/><line class="cls-2" x1="18.83" y1="3.2" x2="18.83" y2="6.74"/><line class="cls-2" x1="9.47" y1="14.74" x2="9.47" y2="18.29"/><line class="cls-2" x1="12.59" y1="14.74" x2="12.59" y2="18.29"/><line class="cls-2" x1="15.71" y1="14.74" x2="15.71" y2="18.29"/><line class="cls-2" x1="18.83" y1="14.74" x2="18.83" y2="18.29"/><path class="cls-3" d="M28.52,18.34s.41.3.42.53,0,.38-.53,1c0,0-.2.39-.71,0l-5.53-4.49a10.76,10.76,0,0,0,.88-1.55Z"/><path class="cls-4" d="M28.52,18.34s.41.3.42.53,0,.38-.53,1c0,0-.2.39-.71,0l-5.53-4.49a10.76,10.76,0,0,0,.88-1.55Z"/><ellipse class="cls-1" cx="18.6" cy="11.75" rx="5.08" ry="5.48"/><path class="cls-3" d="M18.3,8.19s1.53-.5,2.78,1.43"/><line class="cls-2" x1="0.5" y1="25.53" x2="27.8" y2="25.53"/></g></g></svg>