<svg xmlns="http://www.w3.org/2000/svg" viewBox="0 0 26.59 26.3"><defs><style>.cls-1{fill:#fff;}.cls-1,.cls-3,.cls-4{stroke:#344051;}.cls-1,.cls-4{stroke-miterlimit:10;}.cls-2{fill:#344051;}.cls-3,.cls-4{fill:none;stroke-linecap:round;}.cls-3{stroke-linejoin:round;}</style></defs><g id="Layer_2" data-name="Layer 2"><g id="Layer_1-2" data-name="Layer 1"><path class="cls-1" d="M10.76,7.85S6.19,9.52,7.11,13.92a16.74,16.74,0,0,0,1.35,3,16.37,16.37,0,0,1,1.67,3.68s.18,1.71.72,1.83l3.8.05s1.5,0,1.58-.84c0,0,.39-2.57,1-3.23,0,0,2.42-3.79,2.33-5.41,0,0,.39-3.44-3.77-5.2A7.12,7.12,0,0,0,10.76,7.85Z"/><rect class="cls-2" x="10.56" y="23.35" width="5.34" height="0.66" rx="0.33"/><rect class="cls-2" x="10.56" y="24.51" width="5.34" height="0.66" rx="0.33"/><rect class="cls-2" x="11.28" y="25.64" width="3.89" height="0.66" rx="0.33"/><line class="cls-3" x1="21.19" y1="12.75" x2="26.09" y2="12.75"/><line class="cls-3" x1="20.2" y1="9.08" x2="24.45" y2="6.63"/><line class="cls-3" x1="17" y1="6.39" x2="19.45" y2="2.14"/><line class="cls-3" x1="6.45" y1="9.08" x2="2.21" y2="6.63"/><line class="cls-3" x1="9.65" y1="6.39" x2="7.2" y2="2.14"/><line class="cls-3" x1="13.33" y1="5.4" x2="13.33" y2="0.5"/><line class="cls-3" x1="5.4" y1="12.75" x2="0.5" y2="12.75"/><path class="cls-4" d="M17.29,13.25s-.36-2.68-4-3.33"/></g></g></svg>